<?xml version="1.0" encoding="UTF-8"?>
<svg width="24" height="24" viewBox="0 0 24 24"
     xmlns="http://www.w3.org/2000/svg">
  <path fill="white" d="
    M12 2
    C6.5 2 3 5.8 3 11
    c0 5.2 3.4 9 8.5 9
    3.2 0 5.4-1.4 6.8-3.5
    l-2.2-1.3
    c-0.8 1.4-2.2 2.2-4.3 2.2
    -2.9 0-4.8-2.1-4.8-5.4
    0-3.3 1.9-5.4 4.8-5.4
    2.1 0 3.6 0.9 4.4 2.5
    -2.6-0.4-4.6 0.9-4.6 3.1
    0 2.1 1.6 3.4 4.1 3.4
    2.9 0 4.9-2 4.9-5.2
    C21.6 6 17.6 2 12 2
    Z

    M14.4 12.7
    c-1.2 0-1.9-0.6-1.9-1.5
    0-1 0.9-1.6 2.3-1.3
    1.1 0.2 1.8 0.8 1.8 1.6
    0 0.7-0.7 1.2-2.2 1.2
    z
  "/>
</svg>
