<?xml version="1.0" encoding="UTF-8"?>
<svg version="1.1" xmlns="http://www.w3.org/2000/svg" width="764" height="764">
<path d="M0 0 C0.65226563 0.30808594 1.30453125 0.61617187 1.9765625 0.93359375 C2.6365625 0.60359375 3.2965625 0.27359375 3.9765625 -0.06640625 C3.9765625 0.92359375 3.9765625 1.91359375 3.9765625 2.93359375 C5.04390625 3.33578125 5.04390625 3.33578125 6.1328125 3.74609375 C21.44495819 10.14017657 34.10974141 21.61832913 45.9765625 32.93359375 C47.16378906 34.04154297 47.16378906 34.04154297 48.375 35.171875 C76.11165525 61.78933188 94.32965636 102.48905988 95.1796875 140.8203125 C95.68174714 190.39711282 81.19656926 235.4603346 47.44116211 272.62402344 C45.9765625 273.93359375 45.9765625 273.93359375 43.9765625 273.93359375 C43.9765625 274.59359375 43.9765625 275.25359375 43.9765625 275.93359375 C41.5138644 278.48096915 38.69378557 280.66345371 35.9765625 282.93359375 C35.19023438 283.61808594 34.40390625 284.30257813 33.59375 285.0078125 C5.52885549 308.91017678 -30.69361295 323.16964466 -67.57421875 324.3203125 C-68.74515327 324.35859917 -68.74515327 324.35859917 -69.93974304 324.3976593 C-71.57410272 324.44926097 -73.20853099 324.49873098 -74.84301758 324.54614258 C-77.34696427 324.62142528 -79.85008885 324.71195426 -82.35351562 324.80273438 C-83.94788847 324.85119723 -85.54228911 324.89875566 -87.13671875 324.9453125 C-88.25703239 324.98890144 -88.25703239 324.98890144 -89.39997864 325.03337097 C-93.19743709 325.12599325 -94.77472716 325.09940065 -98.0234375 322.93359375 C-100.8979538 322.26598297 -103.75143338 321.67010542 -106.6484375 321.12109375 C-114.11978813 319.64779886 -121.35528747 317.80053768 -128.59033203 315.4206543 C-133.31191449 313.90918545 -133.31191449 313.90918545 -138.0234375 314.93359375 C-138.3534375 313.94359375 -138.6834375 312.95359375 -139.0234375 311.93359375 C-140.8045903 310.783798 -140.8045903 310.783798 -143.046875 309.875 C-143.89378906 309.49537109 -144.74070312 309.11574219 -145.61328125 308.72460938 C-146.53238281 308.31919922 -147.45148438 307.91378906 -148.3984375 307.49609375 C-163.25332807 300.6782883 -176.73739234 292.14321032 -189.45703125 281.89453125 C-191.6294655 280.23461954 -193.57817084 279.09992266 -196.0234375 277.93359375 C-196.13309845 278.52884857 -196.2427594 279.12410339 -196.35574341 279.73739624 C-197.59367105 286.21201483 -199.2053644 292.51176066 -201.015625 298.84765625 C-201.31401779 299.90417389 -201.61241058 300.96069153 -201.91984558 302.04922485 C-202.56913655 304.34725839 -203.22002756 306.64484032 -203.87234497 308.9420166 C-204.91619589 312.62118517 -205.953991 316.30201168 -206.98999023 319.98339844 C-210.0049101 330.69615246 -213.02517032 341.40739049 -216.05551147 352.11579323 C-218.39071251 360.36806782 -220.71839883 368.62239653 -223.03404236 376.88018227 C-224.17097182 380.93320292 -225.31210404 384.98493854 -226.46307373 389.03399658 C-227.5531196 392.86883016 -228.63274433 396.70644615 -229.70461464 400.54639816 C-230.10329893 401.96746675 -230.50582022 403.38746514 -230.91240501 404.80629349 C-231.47020043 406.7549915 -232.01293955 408.70798042 -232.55493164 410.66113281 C-232.86419083 411.75717834 -233.17345001 412.85322388 -233.49208069 413.98248291 C-234.03815623 417.01534033 -233.8497424 418.99023276 -233.0234375 421.93359375 C-233.6834375 421.93359375 -234.3434375 421.93359375 -235.0234375 421.93359375 C-235.67237987 423.99511764 -236.3174639 426.05785633 -236.9609375 428.12109375 C-237.32058594 429.26964844 -237.68023437 430.41820312 -238.05078125 431.6015625 C-239.18030159 435.4709635 -240.0234375 438.89989268 -240.0234375 442.93359375 C-245.89619009 445.38057399 -250.6529137 446.09266072 -257.0234375 446.05859375 C-257.71566406 446.06246094 -258.40789062 446.06632812 -259.12109375 446.0703125 C-263.28577573 446.06275409 -267.37657548 445.82860614 -271.52246094 445.43139648 C-277.95619794 444.88297891 -284.33531811 444.80558359 -290.7890625 444.8359375 C-291.94847351 444.83735245 -293.10788452 444.8387674 -294.3024292 444.84022522 C-297.95945964 444.84576599 -301.61642596 444.858307 -305.2734375 444.87109375 C-307.77213452 444.87611642 -310.27083252 444.88067797 -312.76953125 444.88476562 C-318.85418808 444.89571593 -324.9388082 444.91239379 -331.0234375 444.93359375 C-330.9925 443.26296875 -330.9925 443.26296875 -330.9609375 441.55859375 C-330.75963032 438.10143454 -330.75963032 438.10143454 -332.0234375 435.93359375 C-331.3634375 435.27359375 -330.7034375 434.61359375 -330.0234375 433.93359375 C-328.45654239 431.15482952 -327.47708912 428.39718553 -326.60302734 425.33618164 C-326.21284927 423.97941063 -326.21284927 423.97941063 -325.81478882 422.5952301 C-325.54075226 421.62536667 -325.2667157 420.65550323 -324.984375 419.65625 C-324.69865631 418.65275009 -324.41293762 417.64925018 -324.11856079 416.61534119 C-323.51642185 414.49520605 -322.91640496 412.37446725 -322.31835938 410.25317383 C-321.40226056 407.00962968 -320.47494781 403.76943229 -319.546875 400.52929688 C-318.96285456 398.46764244 -318.37949891 396.40579953 -317.796875 394.34375 C-317.51878998 393.3759108 -317.24070496 392.40807159 -316.95419312 391.41090393 C-316.70037872 390.50323776 -316.44656433 389.59557159 -316.18505859 388.66040039 C-315.9601474 387.86638321 -315.73523621 387.07236603 -315.50350952 386.25428772 C-314.92551059 383.89256236 -314.92551059 383.89256236 -315.07583618 381.26316833 C-315.0234375 378.93359375 -315.0234375 378.93359375 -313.0234375 376.93359375 C-312.32016874 375.15869951 -312.32016874 375.15869951 -311.79003906 373.0925293 C-311.56930725 372.29956955 -311.34857544 371.5066098 -311.12115479 370.68962097 C-310.7711441 369.39306328 -310.7711441 369.39306328 -310.4140625 368.0703125 C-310.0401236 366.71762016 -310.0401236 366.71762016 -309.65863037 365.33760071 C-308.85726686 362.43378927 -308.06508235 359.52756815 -307.2734375 356.62109375 C-306.49746211 353.79519338 -305.71958359 350.96982286 -304.94128418 348.14456177 C-304.42264288 346.2599356 -303.90547414 344.37490358 -303.38977051 342.48947144 C-302.06013267 337.63927494 -300.70246268 332.7994044 -299.29492188 327.97119141 C-299.0163031 327.01291946 -298.73768433 326.05464752 -298.45062256 325.06733704 C-297.91806857 323.24287559 -297.38106096 321.41970635 -296.83892822 319.59806824 C-296.60043152 318.78042496 -296.36193481 317.96278168 -296.11621094 317.12036133 C-295.90462341 316.40592361 -295.69303589 315.6914859 -295.47503662 314.95539856 C-294.87810914 312.62823121 -294.87810914 312.62823121 -295.0234375 308.93359375 C-294.3634375 308.93359375 -293.7034375 308.93359375 -293.0234375 308.93359375 C-292.92111816 308.28672607 -292.81879883 307.6398584 -292.71337891 306.97338867 C-291.46125044 299.55099807 -289.56827767 292.44802261 -287.3984375 285.24609375 C-286.91117187 283.60350586 -286.91117187 283.60350586 -286.4140625 281.92773438 C-285.62232499 279.26144187 -284.82538876 276.59682836 -284.0234375 273.93359375 C-284.6834375 273.60359375 -285.3434375 273.27359375 -286.0234375 272.93359375 C-285.6934375 271.94359375 -285.3634375 270.95359375 -285.0234375 269.93359375 C-284.0334375 269.93359375 -283.0434375 269.93359375 -282.0234375 269.93359375 C-281.91685822 269.34495544 -281.81027893 268.75631714 -281.70046997 268.14984131 C-280.43198882 261.45542037 -278.69552382 254.980123 -276.765625 248.44921875 C-276.13390517 246.27610253 -275.50240106 244.10292359 -274.87109375 241.9296875 C-273.88210456 238.54287996 -272.89057361 235.15685652 -271.89501953 231.77197266 C-270.92825182 228.47887557 -269.97135434 225.18303349 -269.015625 221.88671875 C-268.7156662 220.87724182 -268.4157074 219.86776489 -268.10665894 218.82769775 C-265.66467352 210.37114114 -265.46478551 205.09626258 -269.2734375 197.18359375 C-269.72396484 196.17619141 -269.72396484 196.17619141 -270.18359375 195.1484375 C-271.83758425 191.34143699 -271.83758425 191.34143699 -275.08691406 189.03662109 C-277.0234375 187.93359375 -277.0234375 187.93359375 -277.65820312 185.73193359 C-277.74779297 184.83684082 -277.83738281 183.94174805 -277.9296875 183.01953125 C-278.91064651 176.46629858 -281.43319796 171.36558042 -284.5234375 165.55859375 C-285.60326807 163.46572287 -286.6813579 161.37195304 -287.7578125 159.27734375 C-288.30115234 158.22804688 -288.84449219 157.17875 -289.40429688 156.09765625 C-291.94829319 151.12627624 -294.37049182 146.09932644 -296.7734375 141.05859375 C-297.20333984 140.16736816 -297.63324219 139.27614258 -298.07617188 138.35791016 C-298.66108398 137.13080322 -298.66108398 137.13080322 -299.2578125 135.87890625 C-299.60038086 135.16234863 -299.94294922 134.44579102 -300.29589844 133.70751953 C-301.0234375 131.93359375 -301.0234375 131.93359375 -301.0234375 129.93359375 C-301.6834375 129.60359375 -302.3434375 129.27359375 -303.0234375 128.93359375 C-304.1484375 126.87109375 -304.1484375 126.87109375 -305.0234375 124.93359375 C-305.6834375 125.26359375 -306.3434375 125.59359375 -307.0234375 125.93359375 C-308.0234375 122.93359375 -308.0234375 122.93359375 -307.0234375 119.93359375 C-307.87860374 117.30888916 -307.87860374 117.30888916 -309.26171875 114.4609375 C-309.75220703 113.39681641 -310.24269531 112.33269531 -310.74804688 111.23632812 C-311.27205078 110.12580078 -311.79605469 109.01527344 -312.3359375 107.87109375 C-312.84833984 106.75669922 -313.36074219 105.64230469 -313.88867188 104.49414062 C-316.34199935 98.8015293 -316.34199935 98.8015293 -320.0234375 93.93359375 C-322.09217784 93.29107025 -322.09217784 93.29107025 -324.0234375 92.93359375 C-323.7965625 91.88171875 -323.5696875 90.82984375 -323.3359375 89.74609375 C-322.9837683 85.44962954 -323.70244356 84.38823512 -326.0234375 80.93359375 C-326.02930374 81.99387283 -326.03516998 83.05415192 -326.04121399 84.14656067 C-326.0988472 94.22134319 -326.17181359 104.29591821 -326.25915241 114.37048817 C-326.30356059 119.5478384 -326.3428786 124.72511526 -326.36987305 129.90258789 C-326.39620494 134.91485091 -326.436809 139.9268269 -326.48662376 144.93890953 C-326.50309327 146.83506338 -326.5147297 148.73126663 -326.52105141 150.62748146 C-326.66894763 190.9750272 -338.6973245 230.48452562 -363.0234375 262.93359375 C-363.68472656 263.81917969 -364.34601563 264.70476562 -365.02734375 265.6171875 C-374.93217611 278.26605312 -386.65248615 289.99559932 -400.0234375 298.93359375 C-401.00054687 299.59359375 -401.97765625 300.25359375 -402.984375 300.93359375 C-422.27194362 313.3709176 -443.18112228 320.92295864 -465.8125 324.390625 C-468.90544518 324.75300456 -468.90544518 324.75300456 -471.0234375 325.93359375 C-480.92373445 326.53150494 -490.8412591 325.75155231 -500.7109375 324.99609375 C-501.8453125 324.90932373 -502.9796875 324.82255371 -504.1484375 324.7331543 C-508.8497117 324.3520555 -513.40807845 323.93551936 -518.0234375 322.93359375 C-518.3534375 323.59359375 -518.6834375 324.25359375 -519.0234375 324.93359375 C-519.0234375 323.94359375 -519.0234375 322.95359375 -519.0234375 321.93359375 C-523.16437448 321.72388816 -523.16437448 321.72388816 -527.0234375 322.93359375 C-527.0234375 321.94359375 -527.0234375 320.95359375 -527.0234375 319.93359375 C-527.9928125 319.83046875 -528.9621875 319.72734375 -529.9609375 319.62109375 C-552.52733435 316.26299898 -573.91000662 301.19241021 -591.1484375 287.28125 C-593.08631122 285.7476892 -593.08631122 285.7476892 -596.0234375 284.93359375 C-596.71796212 283.61455707 -597.38120865 282.27886857 -598.0234375 280.93359375 C-599.66738057 279.08616443 -599.66738057 279.08616443 -601.5234375 277.37109375 C-603.74440483 275.25835152 -605.30086167 273.51745749 -607.0234375 270.93359375 C-608.0134375 270.27359375 -609.0034375 269.61359375 -610.0234375 268.93359375 C-611.3828125 267.12109375 -611.3828125 267.12109375 -612.7734375 264.93359375 C-614.82707931 261.74517676 -616.95415347 258.66802279 -619.2109375 255.62109375 C-623.43262596 249.67106303 -626.78834634 243.23554607 -630.20385742 236.80151367 C-630.6547876 235.95951416 -631.10571777 235.11751465 -631.5703125 234.25 C-631.97088867 233.49146729 -632.37146484 232.73293457 -632.78417969 231.95141602 C-633.94241678 229.89002262 -633.94241678 229.89002262 -635.62988281 228.32788086 C-637.57803797 226.37870179 -637.74060851 224.62046919 -638.0234375 221.93359375 C-637.6934375 221.60359375 -637.3634375 221.27359375 -637.0234375 220.93359375 C-638.0134375 217.96359375 -639.0034375 214.99359375 -640.0234375 211.93359375 C-640.6834375 211.93359375 -641.3434375 211.93359375 -642.0234375 211.93359375 C-644.79820262 204.46815425 -645.39145656 197.86644894 -645.0234375 189.93359375 C-645.6834375 189.93359375 -646.3434375 189.93359375 -647.0234375 189.93359375 C-647.0234375 121.95359375 -647.0234375 53.97359375 -647.0234375 -16.06640625 C-638.02113713 -17.1916938 -638.02113713 -17.1916938 -633.72827148 -17.19580078 C-632.77045273 -17.19895294 -631.81263397 -17.2021051 -630.82579041 -17.20535278 C-629.81722488 -17.20332855 -628.80865936 -17.20130432 -627.76953125 -17.19921875 C-626.70984634 -17.20017548 -625.65016144 -17.2011322 -624.55836487 -17.20211792 C-622.32870423 -17.20279544 -620.09904157 -17.20097116 -617.86938477 -17.19677734 C-614.46821647 -17.19141772 -611.06717989 -17.19673968 -607.66601562 -17.203125 C-605.49218721 -17.20246425 -603.31835888 -17.20118314 -601.14453125 -17.19921875 C-600.1339415 -17.20124298 -599.12335175 -17.20326721 -598.08213806 -17.20535278 C-592.95377285 -17.18841972 -588.07723163 -16.95232681 -583.0234375 -16.06640625 C-582.6934375 -16.72640625 -582.3634375 -17.38640625 -582.0234375 -18.06640625 C-582.0234375 -17.40640625 -582.0234375 -16.74640625 -582.0234375 -16.06640625 C-580.6621875 -16.31390625 -580.6621875 -16.31390625 -579.2734375 -16.56640625 C-573.88561275 -17.35513936 -568.45431194 -17.14666548 -563.0234375 -17.06640625 C-562.23406303 -12.20808075 -561.90302391 -7.56612093 -561.91664124 -2.64633179 C-561.9174763 -1.5754025 -561.9174763 -1.5754025 -561.91832823 -0.48283827 C-561.92134671 1.89249879 -561.93151915 4.26774987 -561.94165039 6.64306641 C-561.94520972 8.35384533 -561.94829483 10.0646253 -561.95094299 11.77540588 C-561.95748212 15.45412049 -561.96703489 19.13281057 -561.97883797 22.81151199 C-561.99720619 28.64829216 -562.00675162 34.48506651 -562.01475525 40.3218689 C-562.03884325 56.91838177 -562.07453194 73.51485877 -562.11938477 90.11132812 C-562.14409119 99.28207892 -562.16135923 108.45281532 -562.17094415 117.62359464 C-562.17636795 122.46494614 -562.18560834 127.30622126 -562.20433235 132.14754105 C-564.11863276 175.46204762 -564.11863276 175.46204762 -549.0234375 214.93359375 C-548.0334375 215.26359375 -547.0434375 215.59359375 -546.0234375 215.93359375 C-545.96542969 216.64 -545.90742187 217.34640625 -545.84765625 218.07421875 C-544.7590446 221.85082408 -542.58422902 224.01479288 -539.8359375 226.68359375 C-539.30492432 227.204375 -538.77391113 227.72515625 -538.22680664 228.26171875 C-529.69983414 236.35125174 -517.5516513 245.60699328 -505.40234375 246.0234375 C-504.22478516 245.97896484 -504.22478516 245.97896484 -503.0234375 245.93359375 C-500.0234375 245.93359375 -500.0234375 245.93359375 -497.0234375 246.93359375 C-496.6934375 247.26359375 -496.3634375 247.59359375 -496.0234375 247.93359375 C-477.18098951 249.5479046 -459.26891652 244.33923719 -444.2734375 232.74609375 C-430.31513598 220.59150814 -421.5309938 205.7968724 -417.0234375 187.93359375 C-416.81074219 187.12277344 -416.59804688 186.31195313 -416.37890625 185.4765625 C-413.60734349 174.09122197 -413.85707928 162.45501182 -413.81811523 150.81591797 C-413.80852234 148.99180385 -413.79851146 147.16769188 -413.78811646 145.34358215 C-413.76121416 140.41665939 -413.74012568 135.4897272 -413.72011447 130.56277227 C-413.69816378 125.40447133 -413.67081976 120.24619897 -413.64405823 115.08792114 C-413.59425364 105.33117087 -413.5492697 95.57440462 -413.50603586 85.81762326 C-413.45655858 74.70512922 -413.40167953 63.5926639 -413.34635627 52.48019767 C-413.23272416 29.63135651 -413.12584464 6.78248778 -413.0234375 -16.06640625 C-410.43555104 -17.36034948 -408.56752379 -17.19346958 -405.66943359 -17.19580078 C-403.98398941 -17.20052902 -403.98398941 -17.20052902 -402.26449585 -17.20535278 C-401.03768097 -17.20332855 -399.81086609 -17.20130432 -398.546875 -17.19921875 C-397.27486237 -17.20017548 -396.00284973 -17.2011322 -394.69229126 -17.20211792 C-391.98023276 -17.20359707 -389.26820704 -17.20144115 -386.55615234 -17.19677734 C-383.82370821 -17.19229766 -381.09133054 -17.19213005 -378.35888672 -17.19677734 C-361.22078446 -17.22400395 -344.1393419 -16.96788819 -327.0234375 -16.06640625 C-326.6934375 -16.72640625 -326.3634375 -17.38640625 -326.0234375 -18.06640625 C-326.0234375 -17.40640625 -326.0234375 -16.74640625 -326.0234375 -16.06640625 C-313.1534375 -16.06640625 -300.2834375 -16.06640625 -287.0234375 -16.06640625 C-276.86006232 3.1310802 -276.86006232 3.1310802 -272.87109375 11.6796875 C-268.6611667 20.58497684 -264.31893766 29.41847799 -259.89453125 38.21875 C-259.5907317 38.82357586 -259.28693214 39.42840172 -258.97392654 40.05155563 C-256.16517454 45.64304332 -253.35101261 51.23179841 -250.53295898 56.81860352 C-248.96721028 59.92326671 -247.40540493 63.02988781 -245.84596443 66.13772392 C-244.97932065 67.8619054 -244.1081802 69.58382436 -243.23692322 71.30567932 C-242.71199783 72.35215134 -242.18707245 73.39862335 -241.64624023 74.47680664 C-240.95654396 75.84501305 -240.95654396 75.84501305 -240.25291443 77.24085999 C-238.95356304 80.086629 -237.96124185 82.95111473 -237.0234375 85.93359375 C-236.0334375 85.93359375 -235.0434375 85.93359375 -234.0234375 85.93359375 C-233.76763916 85.37075684 -233.51184082 84.80791992 -233.24829102 84.22802734 C-228.33664984 73.49003525 -223.32638833 63.20416044 -216.640625 53.453125 C-214.84338285 51.15205425 -214.84338285 51.15205425 -215.0234375 48.93359375 C-213.38044994 47.24357971 -211.70869842 45.58145637 -210.0234375 43.93359375 C-208.31700175 41.9252294 -206.63313177 39.90717082 -204.9609375 37.87109375 C-177.40241552 4.96153929 -139.92140595 -14.13244039 -97.2734375 -18.31640625 C-64.84855128 -21.10346941 -28.66573069 -16.27773793 0 0 Z M-135.0234375 80.93359375 C-135.0234375 81.59359375 -135.0234375 82.25359375 -135.0234375 82.93359375 C-135.6834375 82.93359375 -136.3434375 82.93359375 -137.0234375 82.93359375 C-158.72071319 105.8012619 -166.47008378 135.14093676 -174.90234375 164.5625 C-176.13700101 168.86930398 -177.38369305 173.17101002 -178.67578125 177.4609375 C-178.909021 178.23687256 -179.14226074 179.01280762 -179.38256836 179.81225586 C-179.96783725 181.74955164 -180.55788728 183.68540136 -181.1484375 185.62109375 C-182.0765335 189.13460003 -182.87021526 192.29456563 -183.0234375 195.93359375 C-181.6123468 198.4236932 -181.6123468 198.4236932 -179.2734375 200.37109375 C-178.45230469 201.12132812 -177.63117188 201.8715625 -176.78515625 202.64453125 C-169.62657125 209.4732527 -169.62657125 209.4732527 -161.0234375 212.93359375 C-161.0234375 213.59359375 -161.0234375 214.25359375 -161.0234375 214.93359375 C-158.62119999 216.70528236 -156.22559538 218.33405685 -153.7109375 219.93359375 C-152.95417725 220.41836182 -152.19741699 220.90312988 -151.41772461 221.40258789 C-139.97849189 228.6101822 -127.85129039 235.5327975 -115.0234375 239.93359375 C-114.21390625 240.2171875 -113.404375 240.50078125 -112.5703125 240.79296875 C-109.07882442 241.98683242 -105.61242388 243.07380028 -102.0234375 243.93359375 C-101.01152344 244.18238281 -99.99960937 244.43117188 -98.95703125 244.6875 C-91.50725 246.41052203 -84.66673974 247.3547553 -77.0234375 246.93359375 C-77.0234375 247.26359375 -77.0234375 247.59359375 -77.0234375 247.93359375 C-52.94199544 248.97557922 -30.37357685 241.74501665 -12.0859375 226.03515625 C-9.7899566 224.18645193 -9.7899566 224.18645193 -10.0234375 221.93359375 C-9.0334375 221.60359375 -8.0434375 221.27359375 -7.0234375 220.93359375 C-5.7064708 219.04988904 -5.7064708 219.04988904 -5.0234375 216.93359375 C-5.3534375 216.27359375 -5.6834375 215.61359375 -6.0234375 214.93359375 C-5.2809375 214.88847656 -4.5384375 214.84335937 -3.7734375 214.796875 C1.45698927 213.15493705 3.54400768 207.31946846 6.04833984 202.71777344 C12.58758406 190.14838977 15.77052815 177.24070144 17.1015625 163.24609375 C17.20082031 162.30314453 17.30007813 161.36019531 17.40234375 160.38867188 C18.16050653 152.39499909 17.81249705 144.76957528 15.9765625 136.93359375 C15.73679687 135.87527344 15.49703125 134.81695312 15.25 133.7265625 C8.57143248 106.92518069 -6.64555922 84.22117669 -30.0234375 68.93359375 C-42.05877686 61.89416627 -55.93391209 56.50771389 -70.0234375 56.93359375 C-71.31948732 56.93359375 -72.61497059 56.87544572 -73.91015625 56.828125 C-97.37410898 56.32170875 -117.97193476 64.73961339 -135.0234375 80.93359375 Z M-321.0234375 90.93359375 C-320.0234375 92.93359375 -320.0234375 92.93359375 -320.0234375 92.93359375 Z M-275.0234375 185.93359375 C-274.0234375 187.93359375 -274.0234375 187.93359375 -274.0234375 187.93359375 Z M-644.0234375 194.93359375 C-644.0234375 196.91359375 -644.0234375 198.89359375 -644.0234375 200.93359375 C-643.6934375 200.93359375 -643.3634375 200.93359375 -643.0234375 200.93359375 C-643.0234375 198.95359375 -643.0234375 196.97359375 -643.0234375 194.93359375 C-643.3534375 194.93359375 -643.6834375 194.93359375 -644.0234375 194.93359375 Z M-643.0234375 200.93359375 C-642.0234375 203.93359375 -642.0234375 203.93359375 -642.0234375 203.93359375 Z M-642.0234375 204.93359375 C-641.0234375 207.93359375 -641.0234375 207.93359375 -641.0234375 207.93359375 Z M-636.0234375 223.93359375 C-635.0234375 225.93359375 -635.0234375 225.93359375 -635.0234375 225.93359375 Z M-635.0234375 225.93359375 C-634.0234375 227.93359375 -634.0234375 227.93359375 -634.0234375 227.93359375 Z M-284.0234375 270.93359375 C-283.0234375 273.93359375 -283.0234375 273.93359375 -283.0234375 273.93359375 Z " fill="#FCFDFD" transform="translate(662.0234375,196.06640625)"/>
<path d="M0 0 C1.40897804 0.02997826 1.40897804 0.02997826 2.84642029 0.06056213 C3.90744461 0.08065842 4.96846893 0.1007547 6.06164551 0.12145996 C7.79286903 0.16201256 7.79286903 0.16201256 9.55906677 0.2033844 C10.73404221 0.22699539 11.90901764 0.25060638 13.11959839 0.27493286 C16.88990186 0.35179542 20.66001149 0.43572215 24.43016052 0.51979065 C26.97897901 0.57298873 29.52780709 0.62572925 32.0766449 0.67799377 C38.34043795 0.80744097 44.60408586 0.94269552 50.86766052 1.08229065 C50.86766052 1.41229065 50.86766052 1.74229065 50.86766052 2.08229065 C25.62266052 2.57729065 25.62266052 2.57729065 -0.13233948 3.08229065 C-0.146922 8.4302887 -0.16150452 13.77828674 -0.17652893 19.28834534 C-0.22699334 37.01005572 -0.29346183 54.73167984 -0.36805439 72.45330429 C-0.41286785 83.19192773 -0.45231517 93.93051907 -0.47877502 104.66920471 C-0.50187284 114.0377276 -0.53540044 123.40614768 -0.58104104 132.77458882 C-0.60481562 137.72721542 -0.62364697 142.6797412 -0.62995338 147.6324234 C-0.63607651 152.31102583 -0.65633075 156.98937081 -0.68661499 161.6678772 C-0.69528113 163.36876881 -0.69914211 165.06969425 -0.69734764 166.77060699 C-0.67376082 199.49621429 -8.20306599 227.19234785 -31.62452698 250.84010315 C-33.13233948 252.08229065 -33.13233948 252.08229065 -36.13233948 253.08229065 C-34.75835672 249.87863236 -33.30820166 248.20659586 -30.56983948 246.08229065 C-14.33099076 232.19689827 -6.29682794 210.11130139 -4.33398438 189.257967 C-3.88433945 182.17657402 -3.96009858 175.07354304 -3.94288635 167.98048401 C-3.93493261 166.15799269 -3.92654378 164.33550323 -3.91775513 162.51301575 C-3.89978204 158.60678591 -3.88473761 154.70055993 -3.87197876 150.79430962 C-3.8516805 144.62250002 -3.82404374 138.45073644 -3.79530334 132.27896118 C-3.7302711 118.07719868 -3.67458952 103.87540253 -3.6193161 89.67359924 C-3.56849378 76.62930376 -3.51570116 63.5850253 -3.45479059 50.5407725 C-3.42639435 44.39934781 -3.40281768 38.25792884 -3.38286591 32.11647117 C-3.36952373 28.309875 -3.35211082 24.50330556 -3.33355522 20.69673157 C-3.32577063 18.92494949 -3.31971365 17.1531589 -3.31546211 15.38136482 C-3.30945618 12.97372032 -3.2974289 10.56618108 -3.28382874 8.15856934 C-3.28353275 7.44847794 -3.28323676 6.73838654 -3.2829318 6.00677723 C-3.23830516 0.12497177 -3.23830516 0.12497177 0 0 Z " fill="#D1D1D1" transform="translate(252.13233947753906,178.91770935058594)"/>
<path d="M0 0 C1.08038381 3.67807136 0.64197993 6.22836793 0 10 C0.495 11.485 0.495 11.485 1 13 C0.34 13 -0.32 13 -1 13 C-1.64894237 15.06152389 -2.2940264 17.12426258 -2.9375 19.1875 C-3.47697266 20.91033203 -3.47697266 20.91033203 -4.02734375 22.66796875 C-5.15686409 26.53736975 -6 29.96629893 -6 34 C-11.87275259 36.44698024 -16.6294762 37.15906697 -23 37.125 C-23.69222656 37.12886719 -24.38445312 37.13273438 -25.09765625 37.13671875 C-29.26233823 37.12916034 -33.35313798 36.89501239 -37.49902344 36.49780273 C-43.93276044 35.94938516 -50.31188061 35.87198984 -56.765625 35.90234375 C-57.92503601 35.9037587 -59.08444702 35.90517365 -60.2789917 35.90663147 C-63.93602214 35.91217224 -67.59298846 35.92471325 -71.25 35.9375 C-73.74869702 35.94252267 -76.24739502 35.94708422 -78.74609375 35.95117188 C-84.83075058 35.96212218 -90.9153707 35.97880004 -97 36 C-96.67 34.68 -96.34 33.36 -96 32 C-96 32.66 -96 33.32 -96 34 C-67.29 34 -38.58 34 -9 34 C-7.68 28.39 -6.36 22.78 -5 17 C-4.11488465 13.79262147 -3.22429723 10.61468939 -2.25 7.4375 C-1.91935547 6.33631836 -1.91935547 6.33631836 -1.58203125 5.21289062 C-1.05919694 3.47389826 -0.53036009 1.73671194 0 0 Z " fill="#D0D0D1" transform="translate(428,605)"/>
<path d="M0 0 C0.66 0.66 1.32 1.32 2 2 C1.44199117 26.48674057 -10.6548166 47.75776169 -27.4921875 64.7578125 C-29 66 -29 66 -32 67 C-30.62601724 63.79634171 -29.17586219 62.12430521 -26.4375 60 C-10.38776499 46.27631354 -2.31892889 24.42604516 -0.1875 3.8125 C-0.0946875 1.9253125 -0.0946875 1.9253125 0 0 Z " fill="#CBCBCC" transform="translate(248,365)"/>
<path d="M0 0 C0 0.33 0 0.66 0 1 C-1.6396875 1.2165625 -1.6396875 1.2165625 -3.3125 1.4375 C-6.93122987 1.88288104 -6.93122987 1.88288104 -10 3 C-10 2.34 -10 1.68 -10 1 C-13.52183993 1.28023339 -17.04218608 1.57625265 -20.5625 1.875 C-21.55314453 1.95363281 -22.54378906 2.03226563 -23.56445312 2.11328125 C-27.82699602 2.48147432 -31.87504108 2.83324903 -35.96484375 4.1328125 C-38.92176747 4.97764785 -40.19461914 5.12215234 -43 4 C-29.19445554 -0.33312709 -14.4252087 -3.20560193 0 0 Z " fill="#C5C5C5" transform="translate(601,252)"/>
<path d="M0 0 C1.55836954 3.97482864 0.3040907 6.84059959 -0.875 10.8125 C-2.20232676 15.8075544 -2.20232676 15.8075544 -0.64453125 20.47265625 C1.14747786 22.21458926 2.89240446 23.66200378 5 25 C1.41087588 25 0.89142971 24.33563446 -1.6875 22 C-2.31011719 21.443125 -2.93273437 20.88625 -3.57421875 20.3125 C-4.27998047 19.6628125 -4.27998047 19.6628125 -5 19 C-3.64746536 12.54945018 -1.96939767 6.28894321 0 0 Z " fill="#CACACB" transform="translate(482,374)"/>
<path d="M0 0 C0.97582031 0.10183594 1.95164062 0.20367187 2.95703125 0.30859375 C3.69308594 0.39238281 4.42914062 0.47617188 5.1875 0.5625 C5.1875 0.8925 5.1875 1.2225 5.1875 1.5625 C3.5478125 1.7790625 3.5478125 1.7790625 1.875 2 C-1.74372987 2.44538104 -1.74372987 2.44538104 -4.8125 3.5625 C-4.8125 2.9025 -4.8125 2.2425 -4.8125 1.5625 C-6.7925 1.5625 -8.7725 1.5625 -10.8125 1.5625 C-10.8125 1.2325 -10.8125 0.9025 -10.8125 0.5625 C-7.01982808 -0.3735342 -3.87575435 -0.42026252 0 0 Z " fill="#D8D7D8" transform="translate(595.8125,251.4375)"/>
<path d="M0 0 C3.36591866 1.44253657 5.51047079 3.33264727 8 6 C6.68 6.33 5.36 6.66 4 7 C1.125 2.25 1.125 2.25 0 0 Z " fill="#C5C6C7" transform="translate(63,475)"/>
<path d="M0 0 C-1.39332574 3.36720387 -2.9789286 4.9859524 -6 7 C-5.625 4.0625 -5.625 4.0625 -5 1 C-3 0 -3 0 0 0 Z " fill="#DEDFDF" transform="translate(661,410)"/>
<path d="M0 0 C2 1 2 1 3.125 4.0625 C3.41375 5.031875 3.7025 6.00125 4 7 C3.34 7 2.68 7 2 7 C1.34 4.69 0.68 2.38 0 0 Z " fill="#FFFFFF" transform="translate(368,346)"/>
<path d="M0 0 C2.31 0.33 4.62 0.66 7 1 C5.02 1.99 5.02 1.99 3 3 C2.01 2.01 1.02 1.02 0 0 Z " fill="#FFFFFF" transform="translate(545,516)"/>
<path d="M0 0 C0.66 0 1.32 0 2 0 C2.33 1.65 2.66 3.3 3 5 C1.5 3.625 1.5 3.625 0 2 C0 1.34 0 0.68 0 0 Z " fill="#FFFFFF" transform="translate(377,365)"/>
<path d="M0 0 C2.31 0.33 4.62 0.66 7 1 C4 2 4 2 1.8125 1.0625 C1.214375 0.711875 0.61625 0.36125 0 0 Z " fill="#FFFFFF" transform="translate(559,519)"/>
<path d="M0 0 C0.99 0.99 1.98 1.98 3 3 C2.67 3.66 2.34 4.32 2 5 C1.01 4.01 0.02 3.02 -1 2 C-0.67 1.34 -0.34 0.68 0 0 Z " fill="#FFFFFF" transform="translate(40,449)"/>
<path d="M0 0 C0.66 1.32 1.32 2.64 2 4 C1.01 4 0.02 4 -1 4 C-0.67 2.68 -0.34 1.36 0 0 Z " fill="#FFFFFF" transform="translate(347,301)"/>
<path d="M0 0 C-1.65 0.66 -3.3 1.32 -5 2 C-5.33 1.34 -5.66 0.68 -6 0 C-3 -1 -3 -1 0 0 Z " fill="#FFFFFF" transform="translate(502,196)"/>
<path d="M0 0 C0.625 1.875 0.625 1.875 1 4 C0.34 4.66 -0.32 5.32 -1 6 C-0.67 4.02 -0.34 2.04 0 0 Z " fill="#FFFFFF" transform="translate(352,554)"/>
<path d="M0 0 C0.625 1.875 0.625 1.875 1 4 C0.34 4.66 -0.32 5.32 -1 6 C-0.67 4.02 -0.34 2.04 0 0 Z " fill="#FFFFFF" transform="translate(368,498)"/>
<path d="M0 0 C0.66 0.33 1.32 0.66 2 1 C2 1.66 2 2.32 2 3 C0.68 2.67 -0.64 2.34 -2 2 C-1.34 2 -0.68 2 0 2 C0 1.34 0 0.68 0 0 Z " fill="#FFFFFF" transform="translate(565,437)"/>
<path d="M0 0 C1.98 0 3.96 0 6 0 C6 0.33 6 0.66 6 1 C4.02 1 2.04 1 0 1 C0 0.67 0 0.34 0 0 Z " fill="#FFFFFF" transform="translate(587,521)"/>
<path d="M0 0 C0.33 0.66 0.66 1.32 1 2 C0.01 3.485 0.01 3.485 -1 5 C-0.67 3.35 -0.34 1.7 0 0 Z " fill="#FFFFFF" transform="translate(363,518)"/>
<path d="M0 0 C0.66 0 1.32 0 2 0 C2.33 1.32 2.66 2.64 3 4 C2.34 4 1.68 4 1 4 C0.67 2.68 0.34 1.36 0 0 Z " fill="#FFFFFF" transform="translate(362,334)"/>
<path d="M0 0 C0.99 0.495 0.99 0.495 2 1 C1.67 1.99 1.34 2.98 1 4 C0.67 2.68 0.34 1.36 0 0 Z " fill="#FFFFFF" transform="translate(664,301)"/>
<path d="M0 0 C1.98 0 3.96 0 6 0 C6 0.33 6 0.66 6 1 C4.02 1 2.04 1 0 1 C0 0.67 0 0.34 0 0 Z " fill="#FFFFFF" transform="translate(548,178)"/>
<path d="M0 0 C1.65 0 3.3 0 5 0 C5 0.33 5 0.66 5 1 C3.35 1 1.7 1 0 1 C0 0.67 0 0.34 0 0 Z " fill="#FFFFFF" transform="translate(594,521)"/>
<path d="M0 0 C1.65 0 3.3 0 5 0 C5 0.33 5 0.66 5 1 C3.35 1 1.7 1 0 1 C0 0.67 0 0.34 0 0 Z " fill="#FFFFFF" transform="translate(579,521)"/>
<path d="M0 0 C1.65 0 3.3 0 5 0 C5 0.33 5 0.66 5 1 C3.35 1 1.7 1 0 1 C0 0.67 0 0.34 0 0 Z " fill="#FFFFFF" transform="translate(194,521)"/>
<path d="M0 0 C0 0.99 0 1.98 0 3 C-0.66 2.34 -1.32 1.68 -2 1 C-1.34 0.67 -0.68 0.34 0 0 Z " fill="#FFFFFF" transform="translate(612,519)"/>
<path d="M0 0 C0 0.99 0 1.98 0 3 C-0.66 2.34 -1.32 1.68 -2 1 C-1.34 0.67 -0.68 0.34 0 0 Z " fill="#FFFFFF" transform="translate(644,511)"/>
<path d="M0 0 C0.33 0 0.66 0 1 0 C1 1.65 1 3.3 1 5 C0.67 5 0.34 5 0 5 C0 3.35 0 1.7 0 0 Z " fill="#FFFFFF" transform="translate(16,386)"/>
<path d="M0 0 C0.66 0 1.32 0 2 0 C1.67 1.32 1.34 2.64 1 4 C0.67 2.68 0.34 1.36 0 0 Z " fill="#FFFFFF" transform="translate(672,322)"/>
<path d="M0 0 C0.33 0.66 0.66 1.32 1 2 C0.01 2.33 -0.98 2.66 -2 3 C-2 2.34 -2 1.68 -2 1 C-1.34 0.67 -0.68 0.34 0 0 Z " fill="#FFFFFF" transform="translate(515,187)"/>
<path d="M0 0 C1.65 0 3.3 0 5 0 C5 0.33 5 0.66 5 1 C3.35 1 1.7 1 0 1 C0 0.67 0 0.34 0 0 Z " fill="#FFFFFF" transform="translate(537,180)"/>
<path d="M0 0 C0.99 0.495 0.99 0.495 2 1 C1.34 1.66 0.68 2.32 0 3 C0 2.01 0 1.02 0 0 Z " fill="#FFFFFF" transform="translate(435,589)"/>
<path d="M0 0 C1 4 1 4 1 4 Z " fill="#FFFFFF" transform="translate(359,530)"/>
<path d="M0 0 C0.99 0.33 1.98 0.66 3 1 C2.01 1 1.02 1 0 1 C0 0.67 0 0.34 0 0 Z " fill="#FFFFFF" transform="translate(520,509)"/>
<path d="M0 0 C0.33 0.66 0.66 1.32 1 2 C0.01 1.67 -0.98 1.34 -2 1 C-1.34 0.67 -0.68 0.34 0 0 Z " fill="#FFFFFF" transform="translate(253,501)"/>
<path d="M0 0 C0 3 0 3 0 3 Z " fill="#FFFFFF" transform="translate(725,450)"/>
<path d="M0 0 C0.33 0.99 0.66 1.98 1 3 C0.34 2.67 -0.32 2.34 -1 2 C-0.67 1.34 -0.34 0.68 0 0 Z " fill="#FFFFFF" transform="translate(386,434)"/>
<path d="M0 0 C0.66 0.33 1.32 0.66 2 1 C1.01 1 0.02 1 -1 1 C-0.67 0.67 -0.34 0.34 0 0 Z " fill="#FFFFFF" transform="translate(547,263)"/>
<path d="M0 0 C0.99 0.33 1.98 0.66 3 1 C2.01 1 1.02 1 0 1 C0 0.67 0 0.34 0 0 Z " fill="#FFFFFF" transform="translate(724,246)"/>
<path d="M0 0 C0.99 0.33 1.98 0.66 3 1 C2.01 1 1.02 1 0 1 C0 0.67 0 0.34 0 0 Z " fill="#FFFFFF" transform="translate(676,202)"/>
<path d="M0 0 C0.99 0.33 1.98 0.66 3 1 C2.01 1.33 1.02 1.66 0 2 C0 1.34 0 0.68 0 0 Z " fill="#FFFFFF" transform="translate(531,182)"/>
<path d="M0 0 C4 1 4 1 4 1 Z " fill="#FFFFFF" transform="translate(298,178)"/>
<path d="M0 0 C4 1 4 1 4 1 Z " fill="#FFFFFF" transform="translate(39,178)"/>
<path d="M0 0 C0.33 0.66 0.66 1.32 1 2 C0.34 1.67 -0.32 1.34 -1 1 C-0.67 0.67 -0.34 0.34 0 0 Z " fill="#FFFFFF" transform="translate(329,637)"/>
<path d="" fill="#FFFFFF" transform="translate(0,0)"/>
<path d="M0 0 C0.99 0.495 0.99 0.495 2 1 C1.01 1.495 1.01 1.495 0 2 C0 1.34 0 0.68 0 0 Z " fill="#FFFFFF" transform="translate(338,603)"/>
<path d="" fill="#FFFFFF" transform="translate(0,0)"/>
<path d="M0 0 C3 1 3 1 3 1 Z " fill="#FFFFFF" transform="translate(202,520)"/>
<path d="M0 0 C0.66 0 1.32 0 2 0 C1.67 0.66 1.34 1.32 1 2 C0.67 1.34 0.34 0.68 0 0 Z " fill="#FFFFFF" transform="translate(146,520)"/>
<path d="M0 0 C3 1 3 1 3 1 Z " fill="#FFFFFF" transform="translate(619,518)"/>
<path d="M0 0 C3 1 3 1 3 1 Z " fill="#FFFFFF" transform="translate(211,518)"/>
<path d="M0 0 C0.66 0 1.32 0 2 0 C1.67 0.66 1.34 1.32 1 2 C0.67 1.34 0.34 0.68 0 0 Z " fill="#FFFFFF" transform="translate(629,516)"/>
<path d="" fill="#FFFFFF" transform="translate(0,0)"/>
<path d="M0 0 C0.33 0.66 0.66 1.32 1 2 C0.34 1.67 -0.32 1.34 -1 1 C-0.67 0.67 -0.34 0.34 0 0 Z " fill="#FFFFFF" transform="translate(676,495)"/>
<path d="" fill="#FFFFFF" transform="translate(0,0)"/>
<path d="M0 0 C0.33 0.66 0.66 1.32 1 2 C0.34 1.67 -0.32 1.34 -1 1 C-0.67 0.67 -0.34 0.34 0 0 Z " fill="#FFFFFF" transform="translate(691,485)"/>
<path d="M0 0 C0.66 0.66 1.32 1.32 2 2 C1.34 2 0.68 2 0 2 C0 1.34 0 0.68 0 0 Z " fill="#FFFFFF" transform="translate(467,475)"/>
<path d="M0 0 C0.66 0.66 1.32 1.32 2 2 C1.34 2 0.68 2 0 2 C0 1.34 0 0.68 0 0 Z " fill="#FFFFFF" transform="translate(707,471)"/>
<path d="" fill="#FFFFFF" transform="translate(0,0)"/>
<path d="" fill="#FFFFFF" transform="translate(0,0)"/>
<path d="" fill="#FFFFFF" transform="translate(0,0)"/>
<path d="M0 0 C0.33 0.66 0.66 1.32 1 2 C0.34 1.67 -0.32 1.34 -1 1 C-0.67 0.67 -0.34 0.34 0 0 Z " fill="#FFFFFF" transform="translate(556,435)"/>
<path d="M0 0 C0.66 0 1.32 0 2 0 C1.67 0.66 1.34 1.32 1 2 C0.67 1.34 0.34 0.68 0 0 Z " fill="#FFFFFF" transform="translate(204,434)"/>
<path d="" fill="#FFFFFF" transform="translate(0,0)"/>
<path d="M0 0 C0.66 0 1.32 0 2 0 C1.67 0.66 1.34 1.32 1 2 C0.67 1.34 0.34 0.68 0 0 Z " fill="#FFFFFF" transform="translate(539,430)"/>
<path d="M0 0 C0.99 0.495 0.99 0.495 2 1 C1.01 1.495 1.01 1.495 0 2 C0 1.34 0 0.68 0 0 Z " fill="#FFFFFF" transform="translate(323,416)"/>
<path d="M0 0 C0.99 0.495 0.99 0.495 2 1 C1.01 1.495 1.01 1.495 0 2 C0 1.34 0 0.68 0 0 Z " fill="#FFFFFF" transform="translate(747,408)"/>
<path d="M0 0 C0.99 0.495 0.99 0.495 2 1 C1.01 1.495 1.01 1.495 0 2 C0 1.34 0 0.68 0 0 Z " fill="#FFFFFF" transform="translate(484,394)"/>
<path d="" fill="#FFFFFF" transform="translate(0,0)"/>
<path d="M0 0 C0.66 0.66 1.32 1.32 2 2 C1.34 2 0.68 2 0 2 C0 1.34 0 0.68 0 0 Z " fill="#FFFFFF" transform="translate(332,384)"/>
<path d="" fill="#FFFFFF" transform="translate(0,0)"/>
<path d="M0 0 C0.66 0.66 1.32 1.32 2 2 C1.34 2 0.68 2 0 2 C0 1.34 0 0.68 0 0 Z " fill="#FFFFFF" transform="translate(376,362)"/>
<path d="M0 0 C0.99 0.495 0.99 0.495 2 1 C1.01 1.495 1.01 1.495 0 2 C0 1.34 0 0.68 0 0 Z " fill="#FFFFFF" transform="translate(359,330)"/>
<path d="M0 0 C0.66 0 1.32 0 2 0 C1.67 0.66 1.34 1.32 1 2 C0.67 1.34 0.34 0.68 0 0 Z " fill="#FFFFFF" transform="translate(674,328)"/>
<path d="" fill="#FFFFFF" transform="translate(0,0)"/>
<path d="" fill="#FFFFFF" transform="translate(0,0)"/>
<path d="M0 0 C0.66 0 1.32 0 2 0 C1.67 0.66 1.34 1.32 1 2 C0.67 1.34 0.34 0.68 0 0 Z " fill="#FFFFFF" transform="translate(337,283)"/>
<path d="" fill="#FFFFFF" transform="translate(0,0)"/>
<path d="M0 0 C3 1 3 1 3 1 Z " fill="#FFFFFF" transform="translate(599,255)"/>
<path d="M0 0 C0.66 0 1.32 0 2 0 C1.67 0.66 1.34 1.32 1 2 C0.67 1.34 0.34 0.68 0 0 Z " fill="#FFFFFF" transform="translate(571,255)"/>
<path d="M0 0 C0.33 0.66 0.66 1.32 1 2 C0.34 1.67 -0.32 1.34 -1 1 C-0.67 0.67 -0.34 0.34 0 0 Z " fill="#FFFFFF" transform="translate(442,251)"/>
<path d="M0 0 C0.99 0.495 0.99 0.495 2 1 C1.01 1.495 1.01 1.495 0 2 C0 1.34 0 0.68 0 0 Z " fill="#FFFFFF" transform="translate(722,242)"/>
<path d="M0 0 C3 1 3 1 3 1 Z " fill="#FFFFFF" transform="translate(707,227)"/>
<path d="M0 0 C0.33 0.66 0.66 1.32 1 2 C0.34 1.67 -0.32 1.34 -1 1 C-0.67 0.67 -0.34 0.34 0 0 Z " fill="#FFFFFF" transform="translate(684,206)"/>
<path d="" fill="#FFFFFF" transform="translate(0,0)"/>
<path d="M0 0 C3 1 3 1 3 1 Z " fill="#FFFFFF" transform="translate(652,190)"/>
<path d="M0 0 C3 1 3 1 3 1 Z " fill="#FFFFFF" transform="translate(645,187)"/>
<path d="M0 0 C3 1 3 1 3 1 Z " fill="#FFFFFF" transform="translate(543,179)"/>
<path d="M0 0 C3 1 3 1 3 1 Z " fill="#FFFFFF" transform="translate(47,178)"/>
<path d="" fill="#FFFFFF" transform="translate(0,0)"/>
<path d="M0 0 C2 1 2 1 2 1 Z " fill="#FFFFFF" transform="translate(339,600)"/>
<path d="" fill="#FFFFFF" transform="translate(0,0)"/>
<path d="M0 0 C2 1 2 1 2 1 Z " fill="#FFFFFF" transform="translate(436,585)"/>
<path d="" fill="#FFFFFF" transform="translate(0,0)"/>
<path d="" fill="#FFFFFF" transform="translate(0,0)"/>
<path d="" fill="#FFFFFF" transform="translate(0,0)"/>
<path d="M0 0 C2 1 2 1 2 1 Z " fill="#FFFFFF" transform="translate(155,521)"/>
<path d="M0 0 C2 1 2 1 2 1 Z " fill="#FFFFFF" transform="translate(616,519)"/>
<path d="M0 0 C2 1 2 1 2 1 Z " fill="#FFFFFF" transform="translate(207,519)"/>
<path d="" fill="#FFFFFF" transform="translate(0,0)"/>
<path d="M0 0 C2 1 2 1 2 1 Z " fill="#FFFFFF" transform="translate(534,513)"/>
<path d="M0 0 C2 1 2 1 2 1 Z " fill="#FFFFFF" transform="translate(119,513)"/>
<path d="M0 0 C2 1 2 1 2 1 Z " fill="#FFFFFF" transform="translate(529,511)"/>
<path d="M0 0 C2 1 2 1 2 1 Z " fill="#FFFFFF" transform="translate(526,510)"/>
<path d="M0 0 C2 1 2 1 2 1 Z " fill="#FFFFFF" transform="translate(235,510)"/>
<path d="M0 0 C2 1 2 1 2 1 Z " fill="#FFFFFF" transform="translate(519,507)"/>
<path d="" fill="#FFFFFF" transform="translate(0,0)"/>
<path d="" fill="#FFFFFF" transform="translate(0,0)"/>
<path d="M0 0 C2 1 2 1 2 1 Z " fill="#FFFFFF" transform="translate(505,501)"/>
<path d="" fill="#FFFFFF" transform="translate(0,0)"/>
<path d="M0 0 C2 1 2 1 2 1 Z " fill="#FFFFFF" transform="translate(73,487)"/>
<path d="M0 0 C2 1 2 1 2 1 Z " fill="#FFFFFF" transform="translate(481,486)"/>
<path d="M0 0 C2 1 2 1 2 1 Z " fill="#FFFFFF" transform="translate(275,485)"/>
<path d="M0 0 C2 1 2 1 2 1 Z " fill="#FFFFFF" transform="translate(281,480)"/>
<path d="M0 0 C2 1 2 1 2 1 Z " fill="#FFFFFF" transform="translate(699,478)"/>
<path d="" fill="#FFFFFF" transform="translate(0,0)"/>
<path d="" fill="#FFFFFF" transform="translate(0,0)"/>
<path d="" fill="#FFFFFF" transform="translate(0,0)"/>
<path d="" fill="#FFFFFF" transform="translate(0,0)"/>
<path d="M0 0 C2 1 2 1 2 1 Z " fill="#FFFFFF" transform="translate(592,442)"/>
<path d="M0 0 C2 1 2 1 2 1 Z " fill="#FFFFFF" transform="translate(588,442)"/>
<path d="M0 0 C2 1 2 1 2 1 Z " fill="#FFFFFF" transform="translate(184,442)"/>
<path d="M0 0 C2 1 2 1 2 1 Z " fill="#FFFFFF" transform="translate(731,441)"/>
<path d="" fill="#FFFFFF" transform="translate(0,0)"/>
<path d="M0 0 C2 1 2 1 2 1 Z " fill="#FFFFFF" transform="translate(202,436)"/>
<path d="M0 0 C2 1 2 1 2 1 Z " fill="#FFFFFF" transform="translate(207,434)"/>
<path d="M0 0 C2 1 2 1 2 1 Z " fill="#FFFFFF" transform="translate(316,432)"/>
<path d="" fill="#FFFFFF" transform="translate(0,0)"/>
<path d="M0 0 C2 1 2 1 2 1 Z " fill="#FFFFFF" transform="translate(531,427)"/>
<path d="M0 0 C2 1 2 1 2 1 Z " fill="#FFFFFF" transform="translate(123,422)"/>
<path d="" fill="#FFFFFF" transform="translate(0,0)"/>
<path d="" fill="#FFFFFF" transform="translate(0,0)"/>
<path d="" fill="#FFFFFF" transform="translate(0,0)"/>
<path d="" fill="#FFFFFF" transform="translate(0,0)"/>
<path d="" fill="#FFFFFF" transform="translate(0,0)"/>
<path d="" fill="#FFFFFF" transform="translate(0,0)"/>
<path d="" fill="#FFFFFF" transform="translate(0,0)"/>
<path d="" fill="#FFFFFF" transform="translate(0,0)"/>
<path d="" fill="#FFFFFF" transform="translate(0,0)"/>
<path d="" fill="#FFFFFF" transform="translate(0,0)"/>
<path d="" fill="#FFFFFF" transform="translate(0,0)"/>
<path d="M0 0 C2 1 2 1 2 1 Z " fill="#FFFFFF" transform="translate(480,391)"/>
<path d="" fill="#FFFFFF" transform="translate(0,0)"/>
<path d="" fill="#FFFFFF" transform="translate(0,0)"/>
<path d="" fill="#FFFFFF" transform="translate(0,0)"/>
<path d="" fill="#FFFFFF" transform="translate(0,0)"/>
<path d="" fill="#FFFFFF" transform="translate(0,0)"/>
<path d="" fill="#FFFFFF" transform="translate(0,0)"/>
<path d="" fill="#FFFFFF" transform="translate(0,0)"/>
<path d="" fill="#FFFFFF" transform="translate(0,0)"/>
<path d="" fill="#FFFFFF" transform="translate(0,0)"/>
<path d="" fill="#FFFFFF" transform="translate(0,0)"/>
<path d="" fill="#FFFFFF" transform="translate(0,0)"/>
<path d="" fill="#FFFFFF" transform="translate(0,0)"/>
<path d="" fill="#FFFFFF" transform="translate(0,0)"/>
<path d="" fill="#FFFFFF" transform="translate(0,0)"/>
<path d="" fill="#FFFFFF" transform="translate(0,0)"/>
<path d="" fill="#FFFFFF" transform="translate(0,0)"/>
<path d="" fill="#FFFFFF" transform="translate(0,0)"/>
<path d="" fill="#FFFFFF" transform="translate(0,0)"/>
<path d="" fill="#FFFFFF" transform="translate(0,0)"/>
<path d="" fill="#FFFFFF" transform="translate(0,0)"/>
<path d="M0 0 C2 1 2 1 2 1 Z " fill="#FFFFFF" transform="translate(541,268)"/>
<path d="M0 0 C2 1 2 1 2 1 Z " fill="#FFFFFF" transform="translate(628,265)"/>
<path d="" fill="#FFFFFF" transform="translate(0,0)"/>
<path d="M0 0 C2 1 2 1 2 1 Z " fill="#FFFFFF" transform="translate(620,261)"/>
<path d="" fill="#FFFFFF" transform="translate(0,0)"/>
<path d="M0 0 C2 1 2 1 2 1 Z " fill="#FFFFFF" transform="translate(563,257)"/>
<path d="M0 0 C2 1 2 1 2 1 Z " fill="#FFFFFF" transform="translate(579,254)"/>
<path d="" fill="#FFFFFF" transform="translate(0,0)"/>
<path d="M0 0 C2 1 2 1 2 1 Z " fill="#FFFFFF" transform="translate(728,251)"/>
<path d="M0 0 C2 1 2 1 2 1 Z " fill="#FFFFFF" transform="translate(723,244)"/>
<path d="" fill="#FFFFFF" transform="translate(0,0)"/>
<path d="" fill="#FFFFFF" transform="translate(0,0)"/>
<path d="" fill="#FFFFFF" transform="translate(0,0)"/>
<path d="M0 0 C2 1 2 1 2 1 Z " fill="#FFFFFF" transform="translate(520,186)"/>
<path d="M0 0 C2 1 2 1 2 1 Z " fill="#FFFFFF" transform="translate(528,183)"/>
<path d="M0 0 C2 1 2 1 2 1 Z " fill="#FFFFFF" transform="translate(629,182)"/>
<path d="M0 0 C2 1 2 1 2 1 Z " fill="#FFFFFF" transform="translate(535,181)"/>
<path d="M0 0 C2 1 2 1 2 1 Z " fill="#FFFFFF" transform="translate(622,180)"/>
<path d="M0 0 C2 1 2 1 2 1 Z " fill="#FFFFFF" transform="translate(63,178)"/>
<path d="M0 0 C2 1 2 1 2 1 Z " fill="#FFFFFF" transform="translate(32,178)"/>
<path d="" fill="#FFFFFF" transform="translate(0,0)"/>
<path d="" fill="#FFFFFF" transform="translate(0,0)"/>
<path d="" fill="#FFFFFF" transform="translate(0,0)"/>
<path d="" fill="#FFFFFF" transform="translate(0,0)"/>
<path d="" fill="#FFFFFF" transform="translate(0,0)"/>
<path d="" fill="#FFFFFF" transform="translate(0,0)"/>
<path d="" fill="#FFFFFF" transform="translate(0,0)"/>
<path d="" fill="#FFFFFF" transform="translate(0,0)"/>
<path d="" fill="#FFFFFF" transform="translate(0,0)"/>
<path d="" fill="#FFFFFF" transform="translate(0,0)"/>
<path d="" fill="#FFFFFF" transform="translate(0,0)"/>
<path d="" fill="#FFFFFF" transform="translate(0,0)"/>
<path d="" fill="#FFFFFF" transform="translate(0,0)"/>
<path d="" fill="#FFFFFF" transform="translate(0,0)"/>
<path d="" fill="#FFFFFF" transform="translate(0,0)"/>
<path d="" fill="#FFFFFF" transform="translate(0,0)"/>
<path d="" fill="#FFFFFF" transform="translate(0,0)"/>
<path d="" fill="#FFFFFF" transform="translate(0,0)"/>
<path d="" fill="#FFFFFF" transform="translate(0,0)"/>
<path d="" fill="#FFFFFF" transform="translate(0,0)"/>
<path d="" fill="#FFFFFF" transform="translate(0,0)"/>
<path d="" fill="#FFFFFF" transform="translate(0,0)"/>
<path d="" fill="#FFFFFF" transform="translate(0,0)"/>
<path d="" fill="#FFFFFF" transform="translate(0,0)"/>
<path d="" fill="#FFFFFF" transform="translate(0,0)"/>
<path d="" fill="#FFFFFF" transform="translate(0,0)"/>
<path d="" fill="#FFFFFF" transform="translate(0,0)"/>
<path d="" fill="#FFFFFF" transform="translate(0,0)"/>
<path d="" fill="#FFFFFF" transform="translate(0,0)"/>
<path d="" fill="#FFFFFF" transform="translate(0,0)"/>
<path d="" fill="#FFFFFF" transform="translate(0,0)"/>
<path d="" fill="#FFFFFF" transform="translate(0,0)"/>
<path d="" fill="#FFFFFF" transform="translate(0,0)"/>
<path d="" fill="#FFFFFF" transform="translate(0,0)"/>
<path d="" fill="#FFFFFF" transform="translate(0,0)"/>
<path d="" fill="#FFFFFF" transform="translate(0,0)"/>
<path d="" fill="#FFFFFF" transform="translate(0,0)"/>
<path d="" fill="#FFFFFF" transform="translate(0,0)"/>
<path d="" fill="#FFFFFF" transform="translate(0,0)"/>
<path d="" fill="#FFFFFF" transform="translate(0,0)"/>
<path d="" fill="#FFFFFF" transform="translate(0,0)"/>
<path d="" fill="#FFFFFF" transform="translate(0,0)"/>
<path d="" fill="#FFFFFF" transform="translate(0,0)"/>
<path d="" fill="#FFFFFF" transform="translate(0,0)"/>
<path d="" fill="#FFFFFF" transform="translate(0,0)"/>
<path d="" fill="#FFFFFF" transform="translate(0,0)"/>
<path d="" fill="#FFFFFF" transform="translate(0,0)"/>
<path d="" fill="#FFFFFF" transform="translate(0,0)"/>
<path d="" fill="#FFFFFF" transform="translate(0,0)"/>
<path d="" fill="#FFFFFF" transform="translate(0,0)"/>
<path d="" fill="#FFFFFF" transform="translate(0,0)"/>
<path d="" fill="#FFFFFF" transform="translate(0,0)"/>
<path d="" fill="#FFFFFF" transform="translate(0,0)"/>
<path d="" fill="#FFFFFF" transform="translate(0,0)"/>
<path d="" fill="#FFFFFF" transform="translate(0,0)"/>
<path d="" fill="#FFFFFF" transform="translate(0,0)"/>
<path d="" fill="#FFFFFF" transform="translate(0,0)"/>
<path d="" fill="#FFFFFF" transform="translate(0,0)"/>
<path d="" fill="#FFFFFF" transform="translate(0,0)"/>
<path d="" fill="#FFFFFF" transform="translate(0,0)"/>
<path d="" fill="#FFFFFF" transform="translate(0,0)"/>
<path d="" fill="#FFFFFF" transform="translate(0,0)"/>
<path d="" fill="#FFFFFF" transform="translate(0,0)"/>
<path d="" fill="#FFFFFF" transform="translate(0,0)"/>
<path d="" fill="#FFFFFF" transform="translate(0,0)"/>
<path d="" fill="#FFFFFF" transform="translate(0,0)"/>
<path d="" fill="#FFFFFF" transform="translate(0,0)"/>
<path d="" fill="#FFFFFF" transform="translate(0,0)"/>
<path d="" fill="#FFFFFF" transform="translate(0,0)"/>
<path d="" fill="#FFFFFF" transform="translate(0,0)"/>
<path d="" fill="#FFFFFF" transform="translate(0,0)"/>
<path d="" fill="#FFFFFF" transform="translate(0,0)"/>
<path d="" fill="#FFFFFF" transform="translate(0,0)"/>
<path d="" fill="#FFFFFF" transform="translate(0,0)"/>
<path d="" fill="#FFFFFF" transform="translate(0,0)"/>
<path d="" fill="#FFFFFF" transform="translate(0,0)"/>
<path d="" fill="#FFFFFF" transform="translate(0,0)"/>
<path d="" fill="#FFFFFF" transform="translate(0,0)"/>
<path d="" fill="#FFFFFF" transform="translate(0,0)"/>
<path d="" fill="#FFFFFF" transform="translate(0,0)"/>
<path d="" fill="#FFFFFF" transform="translate(0,0)"/>
<path d="" fill="#FFFFFF" transform="translate(0,0)"/>
<path d="" fill="#FFFFFF" transform="translate(0,0)"/>
<path d="" fill="#FFFFFF" transform="translate(0,0)"/>
<path d="" fill="#FFFFFF" transform="translate(0,0)"/>
<path d="" fill="#FFFFFF" transform="translate(0,0)"/>
<path d="" fill="#FFFFFF" transform="translate(0,0)"/>
<path d="" fill="#FFFFFF" transform="translate(0,0)"/>
<path d="" fill="#FFFFFF" transform="translate(0,0)"/>
<path d="" fill="#FFFFFF" transform="translate(0,0)"/>
<path d="" fill="#FFFFFF" transform="translate(0,0)"/>
<path d="" fill="#FFFFFF" transform="translate(0,0)"/>
<path d="" fill="#FFFFFF" transform="translate(0,0)"/>
<path d="" fill="#FFFFFF" transform="translate(0,0)"/>
<path d="" fill="#FFFFFF" transform="translate(0,0)"/>
<path d="" fill="#FFFFFF" transform="translate(0,0)"/>
<path d="" fill="#FFFFFF" transform="translate(0,0)"/>
<path d="" fill="#FFFFFF" transform="translate(0,0)"/>
<path d="" fill="#FFFFFF" transform="translate(0,0)"/>
<path d="" fill="#FFFFFF" transform="translate(0,0)"/>
<path d="" fill="#FFFFFF" transform="translate(0,0)"/>
<path d="" fill="#FFFFFF" transform="translate(0,0)"/>
<path d="" fill="#FFFFFF" transform="translate(0,0)"/>
<path d="" fill="#FFFFFF" transform="translate(0,0)"/>
<path d="" fill="#FFFFFF" transform="translate(0,0)"/>
<path d="" fill="#FFFFFF" transform="translate(0,0)"/>
<path d="" fill="#FFFFFF" transform="translate(0,0)"/>
<path d="" fill="#FFFFFF" transform="translate(0,0)"/>
<path d="" fill="#FFFFFF" transform="translate(0,0)"/>
<path d="" fill="#FFFFFF" transform="translate(0,0)"/>
<path d="" fill="#FFFFFF" transform="translate(0,0)"/>
<path d="" fill="#FFFFFF" transform="translate(0,0)"/>
<path d="" fill="#FFFFFF" transform="translate(0,0)"/>
<path d="" fill="#FFFFFF" transform="translate(0,0)"/>
<path d="" fill="#FFFFFF" transform="translate(0,0)"/>
<path d="" fill="#FFFFFF" transform="translate(0,0)"/>
<path d="" fill="#FFFFFF" transform="translate(0,0)"/>
<path d="" fill="#FFFFFF" transform="translate(0,0)"/>
<path d="" fill="#FFFFFF" transform="translate(0,0)"/>
<path d="" fill="#FFFFFF" transform="translate(0,0)"/>
<path d="" fill="#FFFFFF" transform="translate(0,0)"/>
<path d="" fill="#FFFFFF" transform="translate(0,0)"/>
<path d="" fill="#FFFFFF" transform="translate(0,0)"/>
<path d="" fill="#FFFFFF" transform="translate(0,0)"/>
<path d="" fill="#FFFFFF" transform="translate(0,0)"/>
<path d="" fill="#FFFFFF" transform="translate(0,0)"/>
<path d="" fill="#FFFFFF" transform="translate(0,0)"/>
<path d="" fill="#FFFFFF" transform="translate(0,0)"/>
<path d="" fill="#FFFFFF" transform="translate(0,0)"/>
<path d="" fill="#FFFFFF" transform="translate(0,0)"/>
<path d="" fill="#FFFFFF" transform="translate(0,0)"/>
<path d="" fill="#FFFFFF" transform="translate(0,0)"/>
<path d="" fill="#FFFFFF" transform="translate(0,0)"/>
<path d="" fill="#FFFFFF" transform="translate(0,0)"/>
<path d="" fill="#FFFFFF" transform="translate(0,0)"/>
<path d="" fill="#FFFFFF" transform="translate(0,0)"/>
<path d="" fill="#FFFFFF" transform="translate(0,0)"/>
<path d="" fill="#FFFFFF" transform="translate(0,0)"/>
<path d="" fill="#FFFFFF" transform="translate(0,0)"/>
<path d="" fill="#FFFFFF" transform="translate(0,0)"/>
<path d="" fill="#FFFFFF" transform="translate(0,0)"/>
<path d="" fill="#FFFFFF" transform="translate(0,0)"/>
<path d="" fill="#FFFFFF" transform="translate(0,0)"/>
<path d="" fill="#FFFFFF" transform="translate(0,0)"/>
<path d="" fill="#FFFFFF" transform="translate(0,0)"/>
<path d="" fill="#FFFFFF" transform="translate(0,0)"/>
<path d="" fill="#FFFFFF" transform="translate(0,0)"/>
<path d="" fill="#FFFFFF" transform="translate(0,0)"/>
<path d="" fill="#FFFFFF" transform="translate(0,0)"/>
<path d="" fill="#FFFFFF" transform="translate(0,0)"/>
<path d="" fill="#FFFFFF" transform="translate(0,0)"/>
<path d="" fill="#FFFFFF" transform="translate(0,0)"/>
<path d="" fill="#FFFFFF" transform="translate(0,0)"/>
<path d="" fill="#FFFFFF" transform="translate(0,0)"/>
<path d="" fill="#FFFFFF" transform="translate(0,0)"/>
<path d="" fill="#FFFFFF" transform="translate(0,0)"/>
<path d="" fill="#FFFFFF" transform="translate(0,0)"/>
<path d="" fill="#FFFFFF" transform="translate(0,0)"/>
<path d="" fill="#FFFFFF" transform="translate(0,0)"/>
<path d="" fill="#FFFFFF" transform="translate(0,0)"/>
<path d="" fill="#FFFFFF" transform="translate(0,0)"/>
<path d="" fill="#FFFFFF" transform="translate(0,0)"/>
<path d="" fill="#FFFFFF" transform="translate(0,0)"/>
<path d="" fill="#FFFFFF" transform="translate(0,0)"/>
<path d="" fill="#FFFFFF" transform="translate(0,0)"/>
<path d="" fill="#FFFFFF" transform="translate(0,0)"/>
<path d="" fill="#FFFFFF" transform="translate(0,0)"/>
<path d="" fill="#FFFFFF" transform="translate(0,0)"/>
<path d="" fill="#FFFFFF" transform="translate(0,0)"/>
<path d="" fill="#FFFFFF" transform="translate(0,0)"/>
<path d="" fill="#FFFFFF" transform="translate(0,0)"/>
<path d="" fill="#FFFFFF" transform="translate(0,0)"/>
<path d="" fill="#FFFFFF" transform="translate(0,0)"/>
<path d="" fill="#FFFFFF" transform="translate(0,0)"/>
<path d="" fill="#FFFFFF" transform="translate(0,0)"/>
<path d="" fill="#FFFFFF" transform="translate(0,0)"/>
<path d="" fill="#FFFFFF" transform="translate(0,0)"/>
<path d="" fill="#FFFFFF" transform="translate(0,0)"/>
<path d="" fill="#FFFFFF" transform="translate(0,0)"/>
<path d="" fill="#FFFFFF" transform="translate(0,0)"/>
<path d="" fill="#FFFFFF" transform="translate(0,0)"/>
<path d="" fill="#FFFFFF" transform="translate(0,0)"/>
<path d="" fill="#FFFFFF" transform="translate(0,0)"/>
<path d="" fill="#FFFFFF" transform="translate(0,0)"/>
<path d="" fill="#FFFFFF" transform="translate(0,0)"/>
<path d="" fill="#FFFFFF" transform="translate(0,0)"/>
<path d="" fill="#FFFFFF" transform="translate(0,0)"/>
<path d="" fill="#FFFFFF" transform="translate(0,0)"/>
<path d="" fill="#FFFFFF" transform="translate(0,0)"/>
<path d="" fill="#FFFFFF" transform="translate(0,0)"/>
<path d="" fill="#FFFFFF" transform="translate(0,0)"/>
<path d="" fill="#FFFFFF" transform="translate(0,0)"/>
<path d="" fill="#FFFFFF" transform="translate(0,0)"/>
<path d="" fill="#FFFFFF" transform="translate(0,0)"/>
<path d="" fill="#FFFFFF" transform="translate(0,0)"/>
<path d="" fill="#FFFFFF" transform="translate(0,0)"/>
<path d="" fill="#FFFFFF" transform="translate(0,0)"/>
<path d="" fill="#FFFFFF" transform="translate(0,0)"/>
<path d="" fill="#FFFFFF" transform="translate(0,0)"/>
<path d="" fill="#FFFFFF" transform="translate(0,0)"/>
<path d="" fill="#FFFFFF" transform="translate(0,0)"/>
<path d="" fill="#FFFFFF" transform="translate(0,0)"/>
<path d="" fill="#FFFFFF" transform="translate(0,0)"/>
<path d="" fill="#FFFFFF" transform="translate(0,0)"/>
<path d="" fill="#FFFFFF" transform="translate(0,0)"/>
<path d="" fill="#FFFFFF" transform="translate(0,0)"/>
<path d="" fill="#FFFFFF" transform="translate(0,0)"/>
<path d="" fill="#FFFFFF" transform="translate(0,0)"/>
<path d="" fill="#FFFFFF" transform="translate(0,0)"/>
<path d="" fill="#FFFFFF" transform="translate(0,0)"/>
<path d="" fill="#FFFFFF" transform="translate(0,0)"/>
<path d="" fill="#FFFFFF" transform="translate(0,0)"/>
<path d="" fill="#FFFFFF" transform="translate(0,0)"/>
<path d="" fill="#FFFFFF" transform="translate(0,0)"/>
<path d="" fill="#FFFFFF" transform="translate(0,0)"/>
<path d="" fill="#FFFFFF" transform="translate(0,0)"/>
<path d="" fill="#FFFFFF" transform="translate(0,0)"/>
<path d="" fill="#FFFFFF" transform="translate(0,0)"/>
<path d="" fill="#FFFFFF" transform="translate(0,0)"/>
<path d="" fill="#FFFFFF" transform="translate(0,0)"/>
<path d="" fill="#FFFFFF" transform="translate(0,0)"/>
<path d="" fill="#FFFFFF" transform="translate(0,0)"/>
<path d="" fill="#FFFFFF" transform="translate(0,0)"/>
<path d="" fill="#FFFFFF" transform="translate(0,0)"/>
<path d="" fill="#FFFFFF" transform="translate(0,0)"/>
<path d="" fill="#FFFFFF" transform="translate(0,0)"/>
<path d="" fill="#FFFFFF" transform="translate(0,0)"/>
<path d="" fill="#FFFFFF" transform="translate(0,0)"/>
<path d="" fill="#FFFFFF" transform="translate(0,0)"/>
<path d="" fill="#FFFFFF" transform="translate(0,0)"/>
<path d="" fill="#FFFFFF" transform="translate(0,0)"/>
<path d="" fill="#FFFFFF" transform="translate(0,0)"/>
<path d="" fill="#FFFFFF" transform="translate(0,0)"/>
<path d="" fill="#FFFFFF" transform="translate(0,0)"/>
<path d="" fill="#FFFFFF" transform="translate(0,0)"/>
<path d="" fill="#FFFFFF" transform="translate(0,0)"/>
<path d="" fill="#FFFFFF" transform="translate(0,0)"/>
<path d="" fill="#FFFFFF" transform="translate(0,0)"/>
<path d="" fill="#FFFFFF" transform="translate(0,0)"/>
<path d="" fill="#FFFFFF" transform="translate(0,0)"/>
<path d="" fill="#FFFFFF" transform="translate(0,0)"/>
<path d="" fill="#FFFFFF" transform="translate(0,0)"/>
<path d="" fill="#FFFFFF" transform="translate(0,0)"/>
<path d="" fill="#FFFFFF" transform="translate(0,0)"/>
<path d="" fill="#FFFFFF" transform="translate(0,0)"/>
<path d="" fill="#FFFFFF" transform="translate(0,0)"/>
<path d="" fill="#FFFFFF" transform="translate(0,0)"/>
<path d="" fill="#FFFFFF" transform="translate(0,0)"/>
<path d="" fill="#FFFFFF" transform="translate(0,0)"/>
<path d="" fill="#FFFFFF" transform="translate(0,0)"/>
<path d="" fill="#FFFFFF" transform="translate(0,0)"/>
<path d="" fill="#FFFFFF" transform="translate(0,0)"/>
<path d="" fill="#FFFFFF" transform="translate(0,0)"/>
<path d="" fill="#FFFFFF" transform="translate(0,0)"/>
<path d="" fill="#FFFFFF" transform="translate(0,0)"/>
<path d="" fill="#FFFFFF" transform="translate(0,0)"/>
<path d="" fill="#FFFFFF" transform="translate(0,0)"/>
<path d="" fill="#FFFFFF" transform="translate(0,0)"/>
<path d="" fill="#FFFFFF" transform="translate(0,0)"/>
<path d="" fill="#FFFFFF" transform="translate(0,0)"/>
<path d="" fill="#FFFFFF" transform="translate(0,0)"/>
<path d="" fill="#FFFFFF" transform="translate(0,0)"/>
<path d="" fill="#FFFFFF" transform="translate(0,0)"/>
<path d="" fill="#FFFFFF" transform="translate(0,0)"/>
<path d="" fill="#FFFFFF" transform="translate(0,0)"/>
<path d="" fill="#FFFFFF" transform="translate(0,0)"/>
<path d="" fill="#FFFFFF" transform="translate(0,0)"/>
<path d="" fill="#FFFFFF" transform="translate(0,0)"/>
<path d="" fill="#FFFFFF" transform="translate(0,0)"/>
<path d="" fill="#FFFFFF" transform="translate(0,0)"/>
<path d="" fill="#FFFFFF" transform="translate(0,0)"/>
<path d="" fill="#FFFFFF" transform="translate(0,0)"/>
<path d="" fill="#FFFFFF" transform="translate(0,0)"/>
<path d="" fill="#FFFFFF" transform="translate(0,0)"/>
<path d="" fill="#FFFFFF" transform="translate(0,0)"/>
<path d="" fill="#FFFFFF" transform="translate(0,0)"/>
<path d="" fill="#FFFFFF" transform="translate(0,0)"/>
<path d="" fill="#FFFFFF" transform="translate(0,0)"/>
<path d="" fill="#FFFFFF" transform="translate(0,0)"/>
<path d="" fill="#FFFFFF" transform="translate(0,0)"/>
<path d="" fill="#FFFFFF" transform="translate(0,0)"/>
<path d="" fill="#FFFFFF" transform="translate(0,0)"/>
<path d="" fill="#FFFFFF" transform="translate(0,0)"/>
<path d="" fill="#FFFFFF" transform="translate(0,0)"/>
<path d="" fill="#FFFFFF" transform="translate(0,0)"/>
<path d="" fill="#FFFFFF" transform="translate(0,0)"/>
<path d="" fill="#FFFFFF" transform="translate(0,0)"/>
<path d="" fill="#FFFFFF" transform="translate(0,0)"/>
<path d="" fill="#FFFFFF" transform="translate(0,0)"/>
<path d="" fill="#FFFFFF" transform="translate(0,0)"/>
<path d="" fill="#FFFFFF" transform="translate(0,0)"/>
<path d="" fill="#FFFFFF" transform="translate(0,0)"/>
<path d="" fill="#FFFFFF" transform="translate(0,0)"/>
<path d="" fill="#FFFFFF" transform="translate(0,0)"/>
<path d="" fill="#FFFFFF" transform="translate(0,0)"/>
<path d="" fill="#FFFFFF" transform="translate(0,0)"/>
<path d="" fill="#FFFFFF" transform="translate(0,0)"/>
<path d="" fill="#FFFFFF" transform="translate(0,0)"/>
<path d="" fill="#FFFFFF" transform="translate(0,0)"/>
<path d="" fill="#FFFFFF" transform="translate(0,0)"/>
<path d="" fill="#FFFFFF" transform="translate(0,0)"/>
<path d="" fill="#FFFFFF" transform="translate(0,0)"/>
<path d="" fill="#FFFFFF" transform="translate(0,0)"/>
<path d="" fill="#FFFFFF" transform="translate(0,0)"/>
<path d="" fill="#FFFFFF" transform="translate(0,0)"/>
<path d="" fill="#FFFFFF" transform="translate(0,0)"/>
<path d="" fill="#FFFFFF" transform="translate(0,0)"/>
<path d="" fill="#FFFFFF" transform="translate(0,0)"/>
<path d="" fill="#FFFFFF" transform="translate(0,0)"/>
<path d="" fill="#FFFFFF" transform="translate(0,0)"/>
<path d="" fill="#FFFFFF" transform="translate(0,0)"/>
<path d="" fill="#FFFFFF" transform="translate(0,0)"/>
<path d="" fill="#FFFFFF" transform="translate(0,0)"/>
<path d="" fill="#FFFFFF" transform="translate(0,0)"/>
<path d="" fill="#FFFFFF" transform="translate(0,0)"/>
<path d="" fill="#FFFFFF" transform="translate(0,0)"/>
<path d="" fill="#FFFFFF" transform="translate(0,0)"/>
<path d="" fill="#FFFFFF" transform="translate(0,0)"/>
<path d="" fill="#FFFFFF" transform="translate(0,0)"/>
<path d="" fill="#FFFFFF" transform="translate(0,0)"/>
<path d="" fill="#FFFFFF" transform="translate(0,0)"/>
<path d="" fill="#FFFFFF" transform="translate(0,0)"/>
<path d="" fill="#FFFFFF" transform="translate(0,0)"/>
<path d="" fill="#FFFFFF" transform="translate(0,0)"/>
<path d="" fill="#FFFFFF" transform="translate(0,0)"/>
<path d="" fill="#FFFFFF" transform="translate(0,0)"/>
<path d="" fill="#FFFFFF" transform="translate(0,0)"/>
<path d="" fill="#FFFFFF" transform="translate(0,0)"/>
<path d="" fill="#FFFFFF" transform="translate(0,0)"/>
<path d="" fill="#FFFFFF" transform="translate(0,0)"/>
<path d="" fill="#FFFFFF" transform="translate(0,0)"/>
<path d="" fill="#FFFFFF" transform="translate(0,0)"/>
<path d="" fill="#FFFFFF" transform="translate(0,0)"/>
<path d="" fill="#FFFFFF" transform="translate(0,0)"/>
<path d="" fill="#FFFFFF" transform="translate(0,0)"/>
<path d="" fill="#FFFFFF" transform="translate(0,0)"/>
<path d="" fill="#FFFFFF" transform="translate(0,0)"/>
<path d="" fill="#FFFFFF" transform="translate(0,0)"/>
<path d="" fill="#FFFFFF" transform="translate(0,0)"/>
<path d="" fill="#FFFFFF" transform="translate(0,0)"/>
<path d="" fill="#FFFFFF" transform="translate(0,0)"/>
<path d="" fill="#FFFFFF" transform="translate(0,0)"/>
<path d="" fill="#FFFFFF" transform="translate(0,0)"/>
<path d="" fill="#FFFFFF" transform="translate(0,0)"/>
<path d="" fill="#FFFFFF" transform="translate(0,0)"/>
<path d="" fill="#FFFFFF" transform="translate(0,0)"/>
<path d="" fill="#FFFFFF" transform="translate(0,0)"/>
<path d="" fill="#FFFFFF" transform="translate(0,0)"/>
<path d="" fill="#FFFFFF" transform="translate(0,0)"/>
<path d="" fill="#FFFFFF" transform="translate(0,0)"/>
<path d="" fill="#FFFFFF" transform="translate(0,0)"/>
<path d="" fill="#FFFFFF" transform="translate(0,0)"/>
<path d="" fill="#FFFFFF" transform="translate(0,0)"/>
<path d="" fill="#FFFFFF" transform="translate(0,0)"/>
<path d="" fill="#FFFFFF" transform="translate(0,0)"/>
<path d="" fill="#FFFFFF" transform="translate(0,0)"/>
<path d="" fill="#FFFFFF" transform="translate(0,0)"/>
<path d="" fill="#FFFFFF" transform="translate(0,0)"/>
<path d="" fill="#FFFFFF" transform="translate(0,0)"/>
<path d="" fill="#FFFFFF" transform="translate(0,0)"/>
<path d="" fill="#FFFFFF" transform="translate(0,0)"/>
<path d="" fill="#FFFFFF" transform="translate(0,0)"/>
<path d="" fill="#FFFFFF" transform="translate(0,0)"/>
<path d="" fill="#FFFFFF" transform="translate(0,0)"/>
<path d="" fill="#FFFFFF" transform="translate(0,0)"/>
<path d="" fill="#FFFFFF" transform="translate(0,0)"/>
<path d="" fill="#FFFFFF" transform="translate(0,0)"/>
<path d="" fill="#FFFFFF" transform="translate(0,0)"/>
<path d="" fill="#FFFFFF" transform="translate(0,0)"/>
<path d="" fill="#FFFFFF" transform="translate(0,0)"/>
<path d="" fill="#FFFFFF" transform="translate(0,0)"/>
<path d="" fill="#FFFFFF" transform="translate(0,0)"/>
<path d="" fill="#FFFFFF" transform="translate(0,0)"/>
<path d="" fill="#FFFFFF" transform="translate(0,0)"/>
<path d="" fill="#FFFFFF" transform="translate(0,0)"/>
<path d="" fill="#FFFFFF" transform="translate(0,0)"/>
<path d="" fill="#FFFFFF" transform="translate(0,0)"/>
<path d="" fill="#FFFFFF" transform="translate(0,0)"/>
<path d="" fill="#FFFFFF" transform="translate(0,0)"/>
<path d="" fill="#FFFFFF" transform="translate(0,0)"/>
<path d="" fill="#FFFFFF" transform="translate(0,0)"/>
<path d="" fill="#FFFFFF" transform="translate(0,0)"/>
<path d="" fill="#FFFFFF" transform="translate(0,0)"/>
<path d="" fill="#FFFFFF" transform="translate(0,0)"/>
<path d="" fill="#FFFFFF" transform="translate(0,0)"/>
<path d="" fill="#FFFFFF" transform="translate(0,0)"/>
<path d="" fill="#FFFFFF" transform="translate(0,0)"/>
<path d="" fill="#FFFFFF" transform="translate(0,0)"/>
<path d="" fill="#FFFFFF" transform="translate(0,0)"/>
<path d="" fill="#FFFFFF" transform="translate(0,0)"/>
<path d="" fill="#FFFFFF" transform="translate(0,0)"/>
<path d="" fill="#FFFFFF" transform="translate(0,0)"/>
<path d="" fill="#FFFFFF" transform="translate(0,0)"/>
<path d="" fill="#FFFFFF" transform="translate(0,0)"/>
<path d="" fill="#FFFFFF" transform="translate(0,0)"/>
<path d="" fill="#FFFFFF" transform="translate(0,0)"/>
<path d="" fill="#FFFFFF" transform="translate(0,0)"/>
<path d="" fill="#FFFFFF" transform="translate(0,0)"/>
<path d="" fill="#FFFFFF" transform="translate(0,0)"/>
<path d="" fill="#FFFFFF" transform="translate(0,0)"/>
<path d="" fill="#FFFFFF" transform="translate(0,0)"/>
<path d="" fill="#FFFFFF" transform="translate(0,0)"/>
<path d="" fill="#FFFFFF" transform="translate(0,0)"/>
<path d="" fill="#FFFFFF" transform="translate(0,0)"/>
<path d="" fill="#FFFFFF" transform="translate(0,0)"/>
<path d="" fill="#FFFFFF" transform="translate(0,0)"/>
<path d="" fill="#FFFFFF" transform="translate(0,0)"/>
<path d="" fill="#FFFFFF" transform="translate(0,0)"/>
<path d="" fill="#FFFFFF" transform="translate(0,0)"/>
<path d="" fill="#FFFFFF" transform="translate(0,0)"/>
<path d="" fill="#FFFFFF" transform="translate(0,0)"/>
<path d="" fill="#FFFFFF" transform="translate(0,0)"/>
<path d="" fill="#FFFFFF" transform="translate(0,0)"/>
<path d="" fill="#FFFFFF" transform="translate(0,0)"/>
<path d="" fill="#FFFFFF" transform="translate(0,0)"/>
<path d="" fill="#FFFFFF" transform="translate(0,0)"/>
<path d="" fill="#FFFFFF" transform="translate(0,0)"/>
<path d="" fill="#FFFFFF" transform="translate(0,0)"/>
<path d="" fill="#FFFFFF" transform="translate(0,0)"/>
<path d="" fill="#FFFFFF" transform="translate(0,0)"/>
<path d="" fill="#FFFFFF" transform="translate(0,0)"/>
<path d="" fill="#FFFFFF" transform="translate(0,0)"/>
<path d="" fill="#FFFFFF" transform="translate(0,0)"/>
<path d="" fill="#FFFFFF" transform="translate(0,0)"/>
<path d="" fill="#FFFFFF" transform="translate(0,0)"/>
<path d="" fill="#FFFFFF" transform="translate(0,0)"/>
<path d="" fill="#FFFFFF" transform="translate(0,0)"/>
<path d="" fill="#FFFFFF" transform="translate(0,0)"/>
<path d="" fill="#FFFFFF" transform="translate(0,0)"/>
<path d="" fill="#FFFFFF" transform="translate(0,0)"/>
</svg>
